<svg xmlns="http://www.w3.org/2000/svg" viewBox="0 0 208.12 89.69">
  <defs>
    <style>
      .cls-1,
      .cls-2 {
        fill: #2c3e50;
      }
      .cls-1 {
        fill-rule: evenodd;
      }
      .cls-2 {
        font-size: 58.87px;
        font-family: ArialMT, Arial;
      }
    </style>
  </defs>
  <g>
    <g><path
      class="cls-1"
      d="M128.68,43.12V38.81h-7.11V28H117V38.81h-4.33v4.31H117V61.34c0,5.9,2.17,8.61,6.46,8.61a15.63,15.63,0,0,0,5.21-.92V65.09a11.62,11.62,0,0,1-3.4.68c-2.79,0-3.71-2-3.71-5.36V43.12Zm14.9-4.26c-8.09,0-11.05,2.59-11.05,8.68v.68h4.33c0-4,1.9-5.24,6.59-5.24,6.23,0,7.25,2.28,7.25,5.91v3.46c-1.86-.86-3.76-1.06-8.36-1.06-7.73,0-10.65,2-10.65,7.83v2.22c0,6.76,4.6,8.61,10,8.61,4.51,0,7.34-1.41,9-3.2l.57,2.83h4V49.26c0-6.77-2.2-10.4-11.71-10.4Zm-7.34,22.23v-1.6c0-3.51,1.51-4.8,7-4.8,4,0,5.83.55,7.47,1.35v7.27c-1.59,1.41-3.67,2.46-7.56,2.46-3.49,0-6.9-.8-6.9-4.68Zm27.06-.31h-4.46v1.6c0,5.79,4.86,7.7,12.11,7.7,6.72,0,11.58-1.79,11.58-8.87v-.67c0-6.53-2.74-7.94-9.82-8.93-7.33-1-8.79-1-8.79-4.4v-.37c0-3.08,2.43-3.94,6.63-3.94,5,0,6.89,1.3,6.89,3.76v1.17h4.42V46.35c0-4.93-3.05-7.51-11.31-7.51-6.68,0-11.09,1.72-11.09,8.31v.24c0,6.28,2.65,7.17,9.36,8.16,6.94,1,9.11,1.35,9.11,5.23v.68c0,3.51-3.09,4.37-6.94,4.37-4.64,0-7.69-.8-7.69-3.94V60.78ZM198.71,52l9.1-13.23h-5.08l-7.56,11.51h-4.51V28h-4.59V70.08h4.59V54.56h4.64L203,70.08h5.12Z"/><path class="cls-1" d="M65.31,38.83c0,.19,0,22.66,0,22.87v.37c0,3.08,2.43,3.94,6.63,3.94,5,0,6.89-1.29,6.89-3.75V38.83h4.42V62.57c0,4.92-3,7.51-11.31,7.51-6.68,0-11.1-1.73-11.1-8.31V38.83Z"/><path class="cls-1" d="M105.76,70.08c0-.2,0-22.66,0-22.88v-.37c0-3.08-2.44-3.94-6.63-3.94-5,0-6.9,1.3-6.9,3.76V70.08H87.83V46.34c0-4.92,3-7.51,11.32-7.51,6.67,0,11.09,1.72,11.09,8.31V70.08Z"/>
      <text class="cls-2" transform="translate(26.93 70.58)">F</text><path class="cls-1" d="M15.53,39.67A1.67,1.67,0,0,1,15,43L1.41,40.82a1.67,1.67,0,0,1,.51-3.3Z"/><path class="cls-1" d="M15.6,49.79a1.67,1.67,0,1,1,.63,3.28L2.71,55.71a1.67,1.67,0,1,1-.63-3.29Z"/><path class="cls-1" d="M19.12,59.28a1.67,1.67,0,1,1,1.71,2.86L9,69.24a1.67,1.67,0,1,1-1.71-2.86Z"/><path class="cls-1" d="M18.94,30.14a1.67,1.67,0,0,1-1.62,2.92l-12-6.68a1.67,1.67,0,1,1,1.62-2.91Z"/><path class="cls-1" d="M25.4,22.34a1.68,1.68,0,0,1-2.53,2.2l-9-10.39A1.68,1.68,0,1,1,16.36,12Z"/><path class="cls-1" d="M34.13,17.23A1.66,1.66,0,0,1,31,18.42L26.08,5.57a1.67,1.67,0,1,1,3.11-1.2Z"/><path class="cls-1" d="M44.09,15.41a1.67,1.67,0,0,1-3.34.06L40.51,1.69a1.67,1.67,0,0,1,3.33-.05Z"/><path class="cls-1" d="M54.07,17.11A1.67,1.67,0,1,1,50.91,16L55.39,3a1.67,1.67,0,1,1,3.16,1.08Z"/><path class="cls-1" d="M62.87,22.12A1.68,1.68,0,1,1,60.26,20L68.93,9.3a1.67,1.67,0,1,1,2.6,2.11Z"/></g>
  </g>
</svg>
